<svg xmlns="http://www.w3.org/2000/svg" width="20" height="20" viewBox="0 0 20 20">
  <defs>
    <style>
      .cls-1 {
        fill-rule: evenodd;
      }
    </style>
  </defs>
  <path id="кнопка_меню" data-name="кнопка меню" class="cls-1" d="M575.449,61.494h-3a2.972,2.972,0,0,0-2.959,3.009v3a2.956,2.956,0,0,0,2.959,2.99h3A3.032,3.032,0,0,0,578.5,67.5v-3A3.048,3.048,0,0,0,575.449,61.494ZM576.5,67.5a1.033,1.033,0,0,1-1.046.99h-3a0.956,0.956,0,0,1-.957-0.99v-3a0.972,0.972,0,0,1,.957-1.01h3A1.049,1.049,0,0,1,576.5,64.5v3Zm9.966-6.008h-3A2.972,2.972,0,0,0,580.5,64.5v3a2.956,2.956,0,0,0,2.959,2.99h3a3.032,3.032,0,0,0,3.048-2.99v-3A3.048,3.048,0,0,0,586.461,61.494Zm1.046,6.008a1.033,1.033,0,0,1-1.046.99h-3a0.957,0.957,0,0,1-.957-0.99v-3a0.973,0.973,0,0,1,.957-1.01h3a1.049,1.049,0,0,1,1.046,1.01v3Zm-12.058,4.99h-3a2.972,2.972,0,0,0-2.959,3.009v3a2.956,2.956,0,0,0,2.959,2.99h3A3.032,3.032,0,0,0,578.5,78.5v-3A3.048,3.048,0,0,0,575.449,72.493ZM576.5,78.5a1.033,1.033,0,0,1-1.046.99h-3a0.956,0.956,0,0,1-.957-0.99v-3a0.972,0.972,0,0,1,.957-1.009h3A1.049,1.049,0,0,1,576.5,75.5v3Zm9.966-6.008h-3A2.972,2.972,0,0,0,580.5,75.5v3a2.956,2.956,0,0,0,2.959,2.99h3a3.032,3.032,0,0,0,3.048-2.99v-3A3.048,3.048,0,0,0,586.461,72.493Zm1.046,6.008a1.033,1.033,0,0,1-1.046.99h-3a0.957,0.957,0,0,1-.957-0.99v-3a0.973,0.973,0,0,1,.957-1.009h3a1.049,1.049,0,0,1,1.046,1.009v3Z" transform="translate(-569.5 -61.5)"/>
</svg>
