<svg xmlns="http://www.w3.org/2000/svg" width="17.87" height="17.844" viewBox="0 0 17.87 17.844">
  <defs>
    <style>
      .cls-1 {
        fill: #438886;
        fill-rule: evenodd;
      }
    </style>
  </defs>
  <path id="все_соц_сети" data-name="все соц сети" class="cls-1" d="M1208.64,61.239a8.937,8.937,0,1,0,8.17,8.905A8.933,8.933,0,0,0,1208.64,61.239Zm6.32,8.011h-3.03a13.47,13.47,0,0,0-1.64-5.833A7.155,7.155,0,0,1,1214.96,69.25Zm-7.11-6.26c0.01-.01.01-0.021,0.02-0.032a0.057,0.057,0,0,1,.02.032,11.571,11.571,0,0,1,2.25,6.26h-4.53A11.644,11.644,0,0,1,1207.85,62.991Zm-2.4.431a13.432,13.432,0,0,0-1.62,5.829h-3.04A7.164,7.164,0,0,1,1205.45,63.421Zm-4.66,7.618h3.06A13.453,13.453,0,0,0,1205.82,77,7.152,7.152,0,0,1,1200.79,71.039Zm7.09,5.811a11.636,11.636,0,0,1-2.24-5.811h4.48A11.641,11.641,0,0,1,1207.88,76.85Zm2.06,0.142a13.437,13.437,0,0,0,1.96-5.954h3.06A7.161,7.161,0,0,1,1209.94,76.993Z" transform="translate(-1198.94 -61.219)"/>
</svg>
