<svg width="24" height="24" viewBox="0 0 24 24" fill="none" xmlns="http://www.w3.org/2000/svg">
<rect width="24" height="24" fill="black"/>
<g clip-path="url(#clip0)">
<path d="M11.2618 15.0656C10.0989 14.9443 9.05046 14.6579 8.15279 13.9558C8.04141 13.8685 7.92641 13.7843 7.82477 13.6867C7.43186 13.3094 7.39227 12.8772 7.70317 12.4318C7.96914 12.0507 8.41562 11.9487 8.87969 12.1676C8.96955 12.21 9.05517 12.2629 9.13718 12.3198C10.8101 13.4693 13.1083 13.501 14.7876 12.3715C14.9539 12.2439 15.1318 12.1399 15.3379 12.0868C15.7386 11.9839 16.1124 12.1311 16.3275 12.4818C16.5732 12.8822 16.57 13.2731 16.2673 13.584C15.8029 14.0606 15.2444 14.4054 14.6239 14.6461C14.0371 14.8736 13.3944 14.9881 12.7583 15.0641C12.8543 15.1686 12.8995 15.22 12.9596 15.2803C13.8233 16.1481 14.6908 17.0123 15.5517 17.8828C15.845 18.1794 15.9063 18.5472 15.7448 18.8922C15.5682 19.2692 15.1729 19.5173 14.7854 19.4907C14.5398 19.4738 14.3483 19.3515 14.1782 19.1801C13.5264 18.5243 12.8623 17.8805 12.2237 17.2122C12.0379 17.0178 11.9485 17.0546 11.7845 17.2233C11.1287 17.8984 10.4623 18.5631 9.79197 19.224C9.49096 19.5207 9.13278 19.5742 8.7837 19.4046C8.41263 19.2248 8.17651 18.846 8.19474 18.4653C8.2073 18.2079 8.33393 18.0112 8.51066 17.8348C9.36544 16.9812 10.2179 16.1255 11.0706 15.2706C11.127 15.2137 11.1796 15.1534 11.2618 15.0656Z" fill="white"/>
<path d="M11.9702 12.0925C9.8957 12.0854 8.19463 10.3656 8.20673 8.28783C8.21867 6.1871 9.92084 4.49419 12.0158 4.50001C14.1149 4.50566 15.7998 6.22292 15.7893 8.34548C15.7786 10.419 14.0657 12.0997 11.9702 12.0925ZM13.8555 8.29286C13.8519 7.26118 13.0303 6.43987 12.0007 6.43893C10.9624 6.43783 10.1334 7.27407 10.1414 8.31516C10.1491 9.34291 10.9778 10.1584 12.0103 10.1546C13.0396 10.151 13.859 9.32437 13.8555 8.29286Z" fill="white"/>
</g>
<defs>
<clipPath id="clip0">
<rect width="15" height="15" fill="white" transform="translate(4.5 4.5)"/>
</clipPath>
</defs>
</svg>
