<svg width="24" height="24" viewBox="0 0 24 24" fill="none" xmlns="http://www.w3.org/2000/svg">
<rect width="24" height="24" fill="black"/>
<g clip-path="url(#clip0)">
<path d="M19.5 7.0645C19.0031 7.28467 18.47 7.43398 17.9098 7.50064C18.4818 7.15814 18.9196 6.61487 19.1271 5.96952C18.5906 6.2867 17.9984 6.51702 17.3674 6.64187C16.8621 6.10282 16.1433 5.76706 15.3461 5.76706C13.8167 5.76706 12.5766 7.00714 12.5766 8.53573C12.5766 8.75253 12.6011 8.96427 12.6483 9.16675C10.347 9.05116 8.30636 7.94859 6.94059 6.2732C6.70185 6.68151 6.56603 7.15728 6.56603 7.66514C6.56603 8.626 7.05532 9.4738 7.79768 9.96982C7.34382 9.95464 6.91696 9.82979 6.54326 9.62226V9.65685C6.54326 10.9982 7.49821 12.1176 8.76443 12.3724C8.53244 12.4348 8.28781 12.4694 8.03473 12.4694C7.8559 12.4694 7.68296 12.4517 7.51339 12.4179C7.866 13.5188 8.88845 14.3194 10.0999 14.3413C9.15249 15.0837 7.95796 15.5249 6.66053 15.5249C6.43699 15.5249 6.21679 15.5114 6 15.4869C7.22574 16.274 8.68094 16.7329 10.245 16.7329C15.3394 16.7329 18.1241 12.5133 18.1241 8.85378L18.1148 8.49525C18.6589 8.10717 19.1296 7.61958 19.5 7.0645Z" fill="white"/>
</g>
<defs>
<clipPath id="clip0">
<rect width="13.5" height="13.5" fill="white" transform="translate(6 4.5)"/>
</clipPath>
</defs>
</svg>
