<svg xmlns="http://www.w3.org/2000/svg" viewBox="0 0 419.53 297.64"><defs><style>.cls-1{fill:#770d07;fill-rule:evenodd;}</style></defs><title>для дауна 2</title><g id="_1-2" data-name="1"><path class="cls-1" d="M212.57,3.22,81.4,141.67,212.57,288.32,343.74,141.67,212.57,3.22Zm-9.71,210.15-5.07-22.8c4.7-5.46,9.29-11.62,14.78-16.31,5.49,4.69,10.08,10.85,14.78,16.31l-5.07,22.8c-4.09,1.87-5.35,3.31-9.71,5.65-4.36-2.34-5.62-3.78-9.71-5.65Zm-17.14-65c-38.84-8.52-22.4-69.75-.86-79.28,9-4,20.43,8.78,27.71,9,7.28-.22,18.68-13,27.71-9,21.54,9.53,38,70.76-.86,79.28l5.75,28.55c-3.89,2.09-7.8,5.27-11.62,7-13.33-10.51-13.32-10.21-13.23-22.51l10-7.53L228.05,143a240.48,240.48,0,0,0-31,0l-2.22,10.86,9.95,7.53c.09,12.3.11,12-13.23,22.51-3.82-1.72-7.73-4.9-11.62-7Z"/><path class="cls-1" d="M172.45,100.4c-.56,1.18-1.57,3.32-2.2,8.61,27.89,19.24,28.52-24.25,28.49,29.19,5.16-10.47,6.6-13,6.61-28C199.42,104,184.6,96.79,172.45,100.4Z"/><path class="cls-1" d="M252.38,100.4c.56,1.18,1.57,3.32,2.2,8.61-27.89,19.24-28.52-24.25-28.49,29.19-5.16-10.47-6.6-13-6.61-28C225.4,104,240.23,96.79,252.38,100.4Z"/></g></svg>