<svg xmlns="http://www.w3.org/2000/svg" width="18.22" height="18.219" viewBox="0 0 18.22 18.219">
  <defs>
    <style>
      .cls-1 {
        fill: #438886;
        fill-rule: evenodd;
      }
    </style>
  </defs>
  <path id="оставить_заявку" data-name="оставить заявку" class="cls-1" d="M1305.12,76.5s-0.25-.97-0.25-0.974a6.2,6.2,0,0,1-.05-3.228,8.774,8.774,0,0,0,.09-4.18,9.065,9.065,0,1,0-8.87,10.805c1.34,0,1.61-.237,2.79-0.237a15.018,15.018,0,0,1,3.44.6A2.316,2.316,0,0,0,1305.12,76.5Zm-2.26,1.039a18.611,18.611,0,0,0-4.03-.677c-1.34,0-1.65.238-2.79,0.238a7.217,7.217,0,0,1-7.18-6.076,7.26,7.26,0,0,1,14.27-2.522,7.021,7.021,0,0,1-.07,3.32,8.17,8.17,0,0,0,.04,4.163C1303.29,76.726,1303.65,77.543,1302.86,77.543Zm-9.63-7.344a1.82,1.82,0,1,1-1.82-1.822A1.818,1.818,0,0,1,1293.23,70.2Zm4.56,0a1.825,1.825,0,1,1-1.82-1.822A1.825,1.825,0,0,1,1297.79,70.2Zm4.55,0a1.82,1.82,0,1,1-1.82-1.822A1.818,1.818,0,0,1,1302.34,70.2Z" transform="translate(-1286.97 -61.156)"/>
</svg>
