<svg xmlns="http://www.w3.org/2000/svg" width="11.06" height="18.938" viewBox="0 0 11.06 18.938">
  <defs>
    <style>
      .cls-1 {
        fill: #438886;
        fill-rule: evenodd;
      }
    </style>
  </defs>
  <path id="узнать_цену" data-name="узнать цену" class="cls-1" d="M1259.54,73.55h0c0-2.186-1.6-4.344-4.75-4.344V63.677h1.59a1.581,1.581,0,0,1,1.58,1.58h1.58a3.163,3.163,0,0,0-3.16-3.159h-1.59v-1.58h-1.58V62.1a4.369,4.369,0,0,0-4.74,4.344h0a4.367,4.367,0,0,0,4.74,4.344v5.529h-1.58a1.581,1.581,0,0,1-1.58-1.579h-1.58a3.157,3.157,0,0,0,3.16,3.159h1.58v1.58h1.58v-1.58A4.378,4.378,0,0,0,1259.54,73.55Zm-1.58,0h0c0,1.429-1.01,2.764-3.17,2.764V70.785C1256.9,70.785,1257.96,72.072,1257.96,73.55Zm-4.75-4.344c-2.1,0-3.16-1.287-3.16-2.765h0c0-1.429,1-2.764,3.16-2.764v5.529Z" transform="translate(-1248.47 -60.531)"/>
</svg>
