<svg width="24" height="24" viewBox="0 0 24 24" fill="none" xmlns="http://www.w3.org/2000/svg">
<rect width="24" height="24" fill="black"/>
<path fill-rule="evenodd" clip-rule="evenodd" d="M14.7363 5.0029L13.0573 5C11.171 5 9.95202 6.34547 9.95202 8.42793V10.0084H8.26388C8.11801 10.0084 7.99988 10.1357 7.99988 10.2926V12.5826C7.99988 12.7395 8.11814 12.8666 8.26388 12.8666H9.95202V18.6449C9.95202 18.8019 10.0702 18.929 10.216 18.929H12.4186C12.5644 18.929 12.6826 18.8017 12.6826 18.6449V12.8666H14.6564C14.8023 12.8666 14.9204 12.7395 14.9204 12.5826L14.9212 10.2926C14.9212 10.2173 14.8933 10.1451 14.8439 10.0918C14.7945 10.0384 14.7271 10.0084 14.6571 10.0084H12.6826V8.66863C12.6826 8.02466 12.8252 7.69775 13.605 7.69775L14.736 7.69731C14.8817 7.69731 14.9999 7.57008 14.9999 7.41329V5.28692C14.9999 5.13027 14.8819 5.00319 14.7363 5.0029Z" fill="white"/>
</svg>
