<svg width="24" height="24" viewBox="0 0 24 24" fill="none" xmlns="http://www.w3.org/2000/svg">
<rect width="24" height="24" fill="black"/>
<path fill-rule="evenodd" clip-rule="evenodd" d="M8.47304 12.9041L5.24716 11.7248C4.91951 11.6045 4.91667 11.1515 5.24338 11.0281L18.4825 6.02562C18.7632 5.9193 19.0528 6.16014 18.9916 6.44884L16.6158 17.6426C16.5598 17.9069 16.2434 18.0267 16.0201 17.8677L12.7769 15.5614C12.5799 15.4213 12.3114 15.4288 12.1229 15.5793L10.3248 17.0151C10.116 17.1822 9.80155 17.0891 9.72166 16.8372L8.47304 12.9041ZM15.8249 8.47304L9.52036 12.2763C9.27873 12.4224 9.16495 12.7083 9.24303 12.9758L9.92468 15.3218C9.97307 15.4881 10.2194 15.471 10.2429 15.2993L10.4201 14.0127C10.4535 13.7705 10.5715 13.5474 10.7544 13.3806L15.9574 8.64335C16.0547 8.55495 15.9382 8.40489 15.8249 8.47304Z" fill="white"/>
</svg>
