<svg width="24" height="24" viewBox="0 0 24 24" fill="none" xmlns="http://www.w3.org/2000/svg">
<rect width="24" height="24" fill="black"/>
<path fill-rule="evenodd" clip-rule="evenodd" d="M19.9098 15.9852C19.8893 15.9397 19.8701 15.902 19.8522 15.8717C19.5573 15.3268 18.9937 14.658 18.1617 13.8651L18.1441 13.8469L18.1353 13.838L18.1264 13.8289H18.1175C17.7399 13.4596 17.5007 13.2114 17.4006 13.0843C17.2174 12.8421 17.1763 12.597 17.2765 12.3487C17.3472 12.1611 17.613 11.7649 18.0731 11.1595C18.3151 10.8386 18.5068 10.5815 18.6484 10.3878C19.6693 8.99554 20.1119 8.10588 19.9761 7.71846L19.9234 7.62792C19.8879 7.57342 19.7965 7.52355 19.6491 7.47808C19.5014 7.4327 19.3127 7.42519 19.0825 7.45544L16.5334 7.4735C16.4921 7.45849 16.4331 7.45989 16.3563 7.47808C16.2796 7.49627 16.2412 7.50539 16.2412 7.50539L16.1968 7.52813L16.1616 7.55545C16.1321 7.57351 16.0997 7.60528 16.0642 7.65069C16.029 7.69594 15.9995 7.74905 15.9759 7.80957C15.6984 8.54197 15.3829 9.22291 15.0287 9.85237C14.8104 10.2277 14.6099 10.553 14.4267 10.8284C14.2439 11.1038 14.0904 11.3066 13.9666 11.4366C13.8426 11.5668 13.7307 11.6711 13.6302 11.7498C13.5298 11.8286 13.4532 11.8619 13.4002 11.8498C13.347 11.8376 13.297 11.8255 13.2496 11.8134C13.167 11.7589 13.1006 11.6848 13.0505 11.591C13.0002 11.4972 12.9664 11.3791 12.9487 11.2368C12.9311 11.0945 12.9207 10.9721 12.9177 10.8691C12.9149 10.7663 12.9162 10.6209 12.9222 10.4333C12.9283 10.2456 12.9311 10.1185 12.9311 10.052C12.9311 9.82191 12.9354 9.57224 12.9442 9.30289C12.9531 9.03354 12.9604 8.82012 12.9664 8.6629C12.9724 8.50552 12.9752 8.33901 12.9752 8.16348C12.9752 7.98794 12.9648 7.85027 12.9442 7.75035C12.9239 7.65056 12.8927 7.5537 12.8515 7.45979C12.8101 7.36598 12.7496 7.29341 12.6701 7.24189C12.5904 7.19044 12.4914 7.14961 12.3736 7.11927C12.0608 7.04667 11.6625 7.0074 11.1786 7.00129C10.0811 6.98921 9.37588 7.0619 9.06313 7.21928C8.93922 7.28578 8.82709 7.37663 8.72683 7.49156C8.62059 7.62477 8.60577 7.69747 8.68247 7.70943C9.03657 7.76384 9.28724 7.894 9.43478 8.09978L9.48795 8.20882C9.5293 8.2875 9.5706 8.42678 9.61192 8.62649C9.65319 8.8262 9.67982 9.04712 9.69154 9.28912C9.72099 9.73105 9.72099 10.1094 9.69154 10.424C9.66199 10.7389 9.63409 10.984 9.60746 11.1595C9.58083 11.335 9.54102 11.4773 9.48795 11.5862C9.43478 11.6951 9.39941 11.7617 9.38167 11.7859C9.36397 11.8101 9.34922 11.8253 9.3375 11.8313C9.2608 11.8614 9.18103 11.8768 9.09847 11.8768C9.01579 11.8768 8.91553 11.8344 8.79754 11.7496C8.67958 11.6648 8.55716 11.5484 8.43027 11.4C8.30338 11.2517 8.16027 11.0444 8.0009 10.7781C7.84164 10.5118 7.6764 10.1971 7.50527 9.83389L7.36369 9.57052C7.27518 9.40109 7.15427 9.15438 7.00085 8.83062C6.84733 8.50673 6.71163 8.19343 6.59367 7.89079C6.54652 7.76368 6.47568 7.66691 6.38128 7.60032L6.33698 7.573C6.30753 7.54883 6.26025 7.52317 6.19539 7.49582C6.13045 7.46851 6.06268 7.44892 5.99181 7.43686L3.56658 7.45493C3.31876 7.45493 3.15061 7.51252 3.06207 7.62754L3.02663 7.68195C3.00893 7.71226 3 7.76066 3 7.82728C3 7.89387 3.0177 7.9756 3.05314 8.07237C3.40717 8.92589 3.79218 9.74905 4.20816 10.542C4.62414 11.3349 4.98562 11.9736 5.29238 12.4575C5.5992 12.9418 5.91195 13.3989 6.23061 13.8285C6.54928 14.2583 6.76021 14.5337 6.86342 14.6547C6.96674 14.776 7.04791 14.8666 7.1069 14.9271L7.32822 15.145C7.46984 15.2903 7.6778 15.4643 7.95219 15.667C8.22665 15.8699 8.5305 16.0696 8.86389 16.2664C9.19734 16.463 9.58526 16.6234 10.0279 16.7475C10.4704 16.8716 10.9012 16.9215 11.3201 16.8974H12.338C12.5445 16.8791 12.7009 16.8126 12.8072 16.6976L12.8424 16.6521C12.8661 16.616 12.8883 16.5599 12.9087 16.4843C12.9294 16.4087 12.9397 16.3253 12.9397 16.2347C12.9337 15.9745 12.953 15.7399 12.9971 15.5311C13.0413 15.3224 13.0915 15.165 13.1478 15.059C13.204 14.9531 13.2674 14.8638 13.338 14.7913C13.4087 14.7187 13.4592 14.6747 13.4887 14.6596C13.5181 14.6444 13.5416 14.634 13.5593 14.6278C13.7009 14.5794 13.8676 14.6263 14.0595 14.7687C14.2513 14.9109 14.4312 15.0866 14.5995 15.2953C14.7677 15.5042 14.9698 15.7386 15.2058 15.9988C15.4419 16.2592 15.6484 16.4527 15.8253 16.58L16.0023 16.6889C16.1205 16.7616 16.2739 16.8282 16.4627 16.8887C16.6513 16.9492 16.8164 16.9643 16.9583 16.9341L19.2241 16.8978C19.4482 16.8978 19.6226 16.8598 19.7463 16.7843C19.8702 16.7086 19.9438 16.6253 19.9676 16.5346C19.9913 16.4438 19.9926 16.3409 19.9721 16.2257C19.9511 16.1109 19.9304 16.0306 19.9098 15.9852Z" fill="white"/>
</svg>
